<?xml version="1.0" standalone="no"?>
<!DOCTYPE svg PUBLIC "-//W3C//DTD SVG 20010904//EN"
 "http://www.w3.org/TR/2001/REC-SVG-20010904/DTD/svg10.dtd">
<svg version="1.0" xmlns="http://www.w3.org/2000/svg"
 width="27" height="20" viewBox="0 0 1200.000000 873.000000"
 preserveAspectRatio="xMidYMid meet">

<g transform="translate(0.000000,873.000000) scale(0.100000,-0.100000)"
fill="#0035B9" stroke="none">
<path d="M0 7230 l0 -680 6000 0 6000 0 0 680 0 680 -6000 0 -6000 0 0 -680z"/>
<path d="M5724 5775 l-268 -465 -543 0 c-299 0 -543 -2 -543 -4 0 -3 121 -215
270 -472 235 -408 268 -470 258 -488 -6 -12 -127 -223 -270 -469 -142 -247
-258 -450 -258 -453 0 -2 244 -4 543 -4 l543 0 268 -465 c148 -256 272 -465
276 -465 4 0 128 209 276 465 l268 465 543 0 c299 0 543 2 543 4 0 3 -121 215
-270 472 -235 408 -268 470 -258 488 6 12 127 223 270 469 142 247 258 450
258 453 0 2 -244 4 -543 4 l-543 0 -268 465 c-148 256 -272 465 -276 465 -4 0
-128 -209 -276 -465z m377 -293 l97 -167 -99 -3 c-54 -1 -144 -1 -198 0 l-99
3 97 167 c53 92 98 168 101 168 3 0 48 -76 101 -168z m-824 -479 c-2 -5 -46
-81 -97 -171 -75 -130 -96 -160 -105 -150 -7 7 -53 84 -103 171 l-90 157 200
0 c109 0 197 -3 195 -7z m1278 -306 c99 -171 180 -321 180 -332 0 -11 -81
-161 -180 -332 l-180 -313 -375 0 -375 0 -180 313 c-99 171 -180 321 -180 332
0 11 81 161 180 332 l180 313 375 0 375 0 180 -313z m473 156 c-50 -87 -96
-164 -103 -171 -9 -10 -30 20 -105 150 -51 90 -95 166 -97 171 -2 4 86 7 195
7 l200 0 -90 -157z m-1843 -963 c48 -85 90 -158 92 -162 2 -5 -86 -8 -196 -8
l-199 0 85 148 c108 188 113 196 122 186 4 -5 47 -79 96 -164z m1843 -12 l90
-158 -200 0 c-109 0 -197 3 -195 8 2 4 46 80 97 170 75 130 96 160 105 150 7
-7 53 -84 103 -170z m-855 -506 c-16 -27 -59 -103 -98 -170 -38 -67 -72 -122
-75 -122 -3 0 -36 55 -75 122 -38 67 -82 143 -98 170 l-27 48 200 0 200 0 -27
-48z"/>
<path d="M0 1500 l0 -680 6000 0 6000 0 0 680 0 680 -6000 0 -6000 0 0 -680z"/>
</g>
</svg>
