<svg width="17" height="24" viewBox="0 0 17 24" fill="none" xmlns="http://www.w3.org/2000/svg">
<g id="Group">
<path id="Vector" d="M7.91495 23.6869C8.04536 23.8825 8.26492 24 8.5 24C8.73508 24 8.95464 23.8825 9.08505 23.6869C10.7491 21.1909 13.2 18.1084 14.908 14.9733C16.2736 12.4666 16.9375 10.3287 16.9375 8.4375C16.9375 3.78506 13.1524 0 8.5 0C3.84756 0 0.0625 3.78506 0.0625 8.4375C0.0625 10.3287 0.72639 12.4666 2.09205 14.9733C3.79872 18.106 6.25436 21.1961 7.91495 23.6869ZM8.5 1.40625C12.377 1.40625 15.5312 4.56047 15.5312 8.4375C15.5312 10.0877 14.9234 12.0055 13.6731 14.3006C12.2009 17.0029 10.1 19.7441 8.5 22.0485C6.9002 19.7444 4.79922 17.003 3.32692 14.3006C2.07658 12.0055 1.46875 10.0877 1.46875 8.4375C1.46875 4.56047 4.62297 1.40625 8.5 1.40625Z" fill="#121212"/>
<path id="Vector_2" d="M8.5 12.6562C10.8262 12.6562 12.7188 10.7637 12.7188 8.4375C12.7188 6.11128 10.8262 4.21875 8.5 4.21875C6.17378 4.21875 4.28125 6.11128 4.28125 8.4375C4.28125 10.7637 6.17378 12.6562 8.5 12.6562ZM8.5 5.625C10.0508 5.625 11.3125 6.88669 11.3125 8.4375C11.3125 9.98831 10.0508 11.25 8.5 11.25C6.94919 11.25 5.6875 9.98831 5.6875 8.4375C5.6875 6.88669 6.94919 5.625 8.5 5.625Z" fill="#121212"/>
</g>
</svg>
