<svg xmlns="http://www.w3.org/2000/svg" xml:space="preserve" style="fill:currentColor;fill-rule:evenodd;clip-rule:evenodd;stroke-linejoin:round;stroke-miterlimit:2" viewBox="0 0 256 256"><path d="M0 66h190v190H0z" style="fill-opacity:.2" transform="translate(0 -37.726) scale(1.14737)"/><path d="M218 38v218H0V38h218Zm-25 25H25v168h168V63Z"/><g transform="translate(-213.748 -7.515) scale(1.83495)"><circle cx="204.5" cy="60.5" r="51.5" style="fill:#ffffff"/><path d="M204.5 9C232.924 9 256 32.076 256 60.5S232.924 112 204.5 112 153 88.924 153 60.5 176.076 9 204.5 9Zm0 13.624c-20.904 0-37.876 16.972-37.876 37.876 0 20.904 16.972 37.876 37.876 37.876 20.904 0 37.876-16.972 37.876-37.876 0-20.904-16.972-37.876-37.876-37.876Z"/></g></svg>