<svg width="25" height="25" viewBox="0 0 25 25" fill="none" xmlns="http://www.w3.org/2000/svg">
<g id="Group">
<path id="Vector" d="M12.5 9.6875C11.9822 9.6875 11.5625 10.1072 11.5625 10.625V12.5C11.5625 13.0178 11.9822 13.4375 12.5 13.4375H14.375C14.8928 13.4375 15.3125 13.0178 15.3125 12.5C15.3125 11.9822 14.8928 11.5625 14.375 11.5625H13.4375V10.625C13.4375 10.1072 13.0178 9.6875 12.5 9.6875Z" fill="#121212"/>
<path id="Vector_2" d="M9.6875 3.3125C9.6875 2.79556 10.1081 2.375 10.625 2.375H14.375C14.8919 2.375 15.3125 2.79556 15.3125 3.3125C15.3125 3.83028 15.7322 4.25 16.25 4.25C16.7678 4.25 17.1875 3.83028 17.1875 3.3125C17.1875 1.76169 15.9258 0.5 14.375 0.5H10.625C9.07419 0.5 7.8125 1.76169 7.8125 3.3125C7.8125 3.83028 8.23222 4.25 8.75 4.25C9.26778 4.25 9.6875 3.83028 9.6875 3.3125Z" fill="#121212"/>
<path id="Vector_3" d="M21.6875 5.9375H3.3125C1.76169 5.9375 0.5 7.19919 0.5 8.75V12.5C0.5 15.0847 2.60277 17.1875 5.1875 17.1875H19.8125C22.3972 17.1875 24.5 15.0847 24.5 12.5V8.75C24.5 7.19919 23.2383 5.9375 21.6875 5.9375ZM22.625 12.5C22.625 14.0508 21.3633 15.3125 19.8125 15.3125H5.1875C3.63669 15.3125 2.375 14.0508 2.375 12.5V8.75C2.375 8.23306 2.79556 7.8125 3.3125 7.8125H21.6875C22.2044 7.8125 22.625 8.23306 22.625 8.75V12.5Z" fill="#121212"/>
<path id="Vector_4" d="M3.125 18.6377C2.60722 18.6377 2.1875 19.0574 2.1875 19.5752V21.6875C2.1875 23.2383 3.44919 24.5 5 24.5H20C21.5508 24.5 22.8125 23.2383 22.8125 21.6875V19.5752C22.8125 19.0574 22.3928 18.6377 21.875 18.6377C21.3572 18.6377 20.9375 19.0574 20.9375 19.5752V21.6875C20.9375 22.2044 20.5169 22.625 20 22.625H5C4.48306 22.625 4.0625 22.2044 4.0625 21.6875V19.5752C4.0625 19.0574 3.64278 18.6377 3.125 18.6377Z" fill="#121212"/>
</g>
</svg>
